<?xml version="1.0" encoding="utf-8"?>
<!-- Generator: Adobe Illustrator 27.1.1, SVG Export Plug-In . SVG Version: 6.00 Build 0)  -->
<svg version="1.1" id="Ebene_1" xmlns="http://www.w3.org/2000/svg" xmlns:xlink="http://www.w3.org/1999/xlink" x="0px" y="0px"
	 viewBox="0 0 220.5 273.1" style="enable-background:new 0 0 220.5 273.1;" xml:space="preserve">
<style type="text/css">
	.st0{fill:#FFFFFF;}
</style>
<path class="st0" d="M73,160.2h57.7l-30.1,112.9l119.8-160.2h-57.7L192.7,0L144,65.1l0.1,0.4c0.9,3.9,1.4,7.9,1.7,12.3l0.2,2.7
	l22-29.5l-19.2,72.5h50.1l-73.3,98.2l19.3-72.4H94.6l24-32.1c7.6-10.4,11.6-22.6,11.6-35.5c0-33.2-27-60.2-60.2-60.2
	S9.9,48.6,9.9,81.7v5.4h47.3v-5.4c0-7.1,5.8-12.8,12.9-12.8S83,74.7,83,81.7c0,2.8-0.9,5.4-2.6,7.7L0,196.7h104.6l2.9-10.8H21.6
	L89,96c3.1-4.1,4.7-9,4.7-14.2c0-13-10.6-23.6-23.7-23.6c-11,0-20.6,7.6-23,18.2H21c2.7-24.8,24.1-44,49.1-44
	c27.2,0,49.4,22.2,49.4,49.4c0,10.5-3.3,20.6-9.5,29.1L73,160.2L73,160.2z"/>
</svg>
